<svg xmlns="http://www.w3.org/2000/svg" width="12" height="12" viewBox="0 0 12 12">
  <g fill="none" fill-rule="evenodd">
    <path fill="#FFF" d="M0,6 C0,5.4484263 0.0710723192,4.91741976 0.215087282,4.40511063 C0.35723192,3.89467124 0.559226933,3.41601745 0.821072319,2.97101901 C1.08104738,2.52602057 1.39339152,2.12215644 1.75623441,1.75568713 C2.11907731,1.39108757 2.52306733,1.07697102 2.96820449,0.817076971 C3.41334165,0.557182923 3.89027431,0.355250857 4.40087282,0.211280773 C4.91147132,0.0710501714 5.44264339,0 5.99438903,0 C6.54613466,0 7.07730673,0.0710501714 7.58977556,0.215020256 C8.10037406,0.35899034 8.57917706,0.560922406 9.02431421,0.820816454 C9.46945137,1.0807105 9.8734414,1.39482705 10.2400249,1.75942661 C10.6047382,2.12402618 10.9189526,2.52976005 11.1789277,2.97475849 C11.4389027,3.41975693 11.6408978,3.89654098 11.7849127,4.40885011 C11.9289277,4.9192895 12,5.45029604 12,6.00373948 C12,6.55718292 11.9289277,7.08631973 11.7849127,7.59862886 C11.6408978,8.10906825 11.4407731,8.58772203 11.1789277,9.03272047 C10.9189526,9.47771892 10.6047382,9.88158305 10.2400249,10.2443129 C9.87531172,10.6070427 9.46945137,10.9192895 9.02431421,11.1791835 C8.57917706,11.4390776 8.10224439,11.6410097 7.58977556,11.7849797 C7.07917706,11.9289498 6.54800499,12 5.99438903,12 C5.44264339,12 4.91147132,11.9289498 4.39900249,11.7849797 C3.88840399,11.6410097 3.409601,11.4390776 2.96633416,11.1791835 C2.52306733,10.9192895 2.11720698,10.6070427 1.75436409,10.2443129 C1.3915212,9.88158305 1.07917706,9.47771892 0.819201995,9.03272047 C0.559226933,8.58772203 0.35723192,8.11093799 0.213216958,7.59862886 C0.0710723192,7.08444998 0,6.55344344 0,6 Z"/>
    <path fill="#000" fill-rule="nonzero" d="M0,6 C0,5.4484263 0.0710723192,4.91741976 0.215087282,4.40511063 C0.35723192,3.89467124 0.559226933,3.41601745 0.821072319,2.97101901 C1.08104738,2.52602057 1.39339152,2.12215644 1.75623441,1.75568713 C2.11907731,1.39108757 2.52306733,1.07697102 2.96820449,0.817076971 C3.41334165,0.557182923 3.89027431,0.355250857 4.40087282,0.211280773 C4.91147132,0.0710501714 5.44264339,0 5.99438903,0 C6.54613466,0 7.07730673,0.0710501714 7.58977556,0.215020256 C8.10037406,0.35899034 8.57917706,0.560922406 9.02431421,0.820816454 C9.46945137,1.0807105 9.8734414,1.39482705 10.2400249,1.75942661 C10.6047382,2.12402618 10.9189526,2.52976005 11.1789277,2.97475849 C11.4389027,3.41975693 11.6408978,3.89654098 11.7849127,4.40885011 C11.9289277,4.9192895 12,5.45029604 12,6.00373948 C12,6.55718292 11.9289277,7.08631973 11.7849127,7.59862886 C11.6408978,8.10906825 11.4407731,8.58772203 11.1789277,9.03272047 C10.9189526,9.47771892 10.6047382,9.88158305 10.2400249,10.2443129 C9.87531172,10.6070427 9.46945137,10.9192895 9.02431421,11.1791835 C8.57917706,11.4390776 8.10224439,11.6410097 7.58977556,11.7849797 C7.07917706,11.9289498 6.54800499,12 5.99438903,12 C5.44264339,12 4.91147132,11.9289498 4.39900249,11.7849797 C3.88840399,11.6410097 3.409601,11.4390776 2.96633416,11.1791835 C2.52306733,10.9192895 2.11720698,10.6070427 1.75436409,10.2443129 C1.3915212,9.88158305 1.07917706,9.47771892 0.819201995,9.03272047 C0.559226933,8.58772203 0.35723192,8.11093799 0.213216958,7.59862886 C0.0710723192,7.08444998 0,6.55344344 0,6 Z M1.10349127,6.00934871 C1.10349127,6.68432533 1.23067332,7.32003739 1.48690773,7.91835463 C1.6701995,8.34839514 1.90399002,8.73917108 2.18453865,9.09068246 C2.46134663,9.13181677 2.78304239,9.15238392 3.15149626,9.15238392 C3.7032419,9.15238392 4.23441397,9.08133375 4.74688279,8.93736366 C5.2574813,8.79526332 5.73628429,8.59333126 6.17955112,8.33156747 C6.62281796,8.06980368 7.0286783,7.75942661 7.39526185,7.39669679 C7.75997506,7.03396697 8.07418953,6.63010284 8.33416459,6.18510439 C8.59413965,5.74010595 8.79613466,5.26332191 8.94014963,4.75101278 C9.08229426,4.24057339 9.15523691,3.70956684 9.15523691,3.1561234 C9.15523691,2.82891867 9.12905237,2.51293238 9.07855362,2.2062948 C8.88965087,2.04736678 8.68765586,1.90713618 8.47256858,1.78560299 C8.10972569,1.57058274 7.71882793,1.40417576 7.29987531,1.28825179 C6.88092269,1.17045809 6.44700748,1.1124961 5.99625935,1.1124961 C5.54551122,1.1124961 5.11346633,1.17045809 4.69638404,1.28825179 C4.27930175,1.4060455 3.89027431,1.57058274 3.52743142,1.78186351 C3.16458853,1.99314428 2.83354115,2.24742911 2.53428928,2.54471798 C2.23503741,2.84013711 1.98067332,3.17108133 1.76745636,3.53381116 C1.55610973,3.89654098 1.3915212,4.28731692 1.27743142,4.70613898 C1.16334165,5.12496105 1.10349127,5.55874104 1.10349127,6.00934871 Z"/>
  </g>
</svg>
