<svg xmlns="http://www.w3.org/2000/svg" width="1440" height="30" viewBox="0 0 1440 30">
  <path fill="#0D0C0F" fill-rule="evenodd" d="M608.5852,29.0733719 L621.655247,29.0733719 C631.978155,14.553931 642.852637,3.78949487 654.757801,-0.000402609506 L626.451668,-0.000402609506 C620.334688,8.59665238 614.412302,18.5115825 608.5852,29.0733719 L608.5852,29.0733719 Z M673.425461,-0.000402609506 C685.168239,3.75594408 693.398919,14.3606785 699.523952,29.0733719 L713.067735,29.0733719 C710.648052,18.3693271 707.797577,8.50673625 704.249245,-0.000402609506 L673.425461,-0.000402609506 Z M443.866915,-0.000402609506 C446.51877,8.92008201 448.71165,18.7383858 450.640149,29.0733719 L460.15918,29.0733719 C458.674893,19.1732041 457.135582,9.38039888 455.385573,-0.000402609506 L443.866915,-0.000402609506 Z M856.984529,-0.000402609506 C850.38576,11.1277241 843.619236,21.1258602 836.549413,29.0733719 L852.19616,29.0733719 C857.600522,19.9663448 862.892153,10.103754 868.147549,-0.000402609506 L856.984529,-0.000402609506 Z M1004.80529,-0.000402609506 C1006.25066,9.71859087 1007.66382,19.5033439 1009.18703,29.0733719 L1019.27374,29.0733719 C1017.25666,19.8442199 1015.53081,10.0460466 1013.93379,-0.000402609506 L1004.80529,-0.000402609506 Z M192.517801,-0.000402609506 C194.070531,9.53473253 195.493085,19.3221696 196.937111,29.0733719 L206.268257,29.0733719 C204.621584,19.6174166 203.145349,9.83132153 201.691929,-0.000402609506 L192.517801,-0.000402609506 Z M325.573532,29.0733719 L335.776999,29.0733719 C341.108891,18.8994296 346.486412,9.03147064 351.9874,-0.000402609506 L340.565368,-0.000402609506 C335.550196,9.56828332 330.575284,19.4067176 325.573532,29.0733719 L325.573532,29.0733719 Z M72.2288164,29.0733719 L84.8586766,29.0733719 C93.8583411,15.9228034 103.260615,5.5059534 113.387586,-0.000402609506 L89.6752283,-0.000402609506 C83.7139236,8.70401491 77.929767,18.6041827 72.2288164,29.0733719 L72.2288164,29.0733719 Z M144.868966,-0.000402609506 C154.021622,5.45898229 160.686151,15.7711538 165.816738,29.0733719 L178.867996,29.0733719 C176.570438,18.4619273 173.885033,8.60738863 170.559478,-0.000402609506 L144.868966,-0.000402609506 Z M399.570475,10.1118062 C385.399963,7.77264492 372.724473,15.5644809 360.893122,29.0733719 L424.400746,29.0733719 C418.172377,18.7571743 410.18863,11.8658416 399.570475,10.1118062 L399.570475,10.1118062 Z M1400.4416,-0.000402609506 C1394.9688,10.2929804 1389.43426,20.1716757 1383.75478,29.0733719 L1395.6331,29.0733719 C1400.68183,19.5825238 1405.67687,9.74408947 1410.68801,-0.000402609506 L1400.4416,-0.000402609506 Z M1279.43195,-0.000402609506 C1280.95515,9.95747251 1282.56022,19.7543038 1284.41223,29.0733719 L1296.54285,29.0733719 C1293.62393,20.2763541 1291.23914,10.443288 1289.1657,-0.000402609506 L1279.43195,-0.000402609506 Z M0.000671015843,23.6797465 C12.8533085,22.8503709 24.4860391,13.746028 35.4329916,-0.000402609506 L0.000671015843,-0.000402609506 L0.000671015843,23.6797465 Z M804.450699,11.1545648 C815.605666,12.9971743 825.834632,8.56041752 835.454315,-0.000402609506 L785.281118,-0.000402609506 C790.52712,5.94882386 796.80246,9.89171295 804.450699,11.1545648 L804.450699,11.1545648 Z M750.998919,-0.000402609506 C752.845555,10.2674818 754.921678,20.0857856 757.424567,29.0733719 L773.969133,29.0733719 C769.097558,21.2050401 765.29424,11.2605853 762.161938,-0.000402609506 L750.998919,-0.000402609506 Z M225.2674,-0.000402609506 L212.904604,-0.000402609506 C215.037092,10.484891 217.49972,20.3286934 220.526002,29.0733719 L242.028034,29.0733719 C234.888425,22.4115266 229.517614,12.2979758 225.2674,-0.000402609506 L225.2674,-0.000402609506 Z M285.950047,29.0733719 L305.944977,29.0733719 C311.698267,20.2253569 317.298565,10.3399515 322.831761,-0.000402609506 L310.741398,-0.000402609506 C302.842199,12.1570624 294.65178,22.3511351 285.950047,29.0733719 L285.950047,29.0733719 Z M559.654725,-0.000402609506 C552.767418,3.9559068 545.544604,5.65223486 537.885629,4.38669897 C533.689096,3.69421062 529.908593,2.18845107 526.477018,-0.000402609506 L501.415918,-0.000402609506 C506.433774,13.1609021 512.926524,23.447575 521.808089,29.0733719 L554.799254,29.0733719 C564.735657,23.3992619 573.978229,13.0105946 582.832954,-0.000402609506 L559.654725,-0.000402609506 Z M1113.50315,-0.000402609506 C1100.22509,17.2487307 1085.96466,27.8413868 1069.74621,25.1626915 C1057.12171,23.0785163 1048.21465,13.7420019 1041.56757,-0.000402609506 L1026.95284,-0.000402609506 C1029.62751,10.8995788 1032.82289,20.7863262 1036.83825,29.0733719 L1108.70002,29.0733719 C1115.14982,20.7031202 1121.3688,10.7600075 1127.46699,-0.000402609506 L1113.50315,-0.000402609506 Z M40.7313327,29.0733719 L52.900876,29.0733719 C57.9724138,19.6241267 62.9862442,9.78435042 68.0081267,-0.000402609506 L57.7093756,-0.000402609506 C52.1493383,10.3627661 46.5195154,20.2495135 40.7313327,29.0733719 L40.7313327,29.0733719 Z M466.281528,-0.000402609506 C467.733607,9.82192731 469.204473,19.6080224 470.839068,29.0733719 L481.645107,29.0733719 C479.303262,20.0092898 477.34658,10.1963541 475.584492,-0.000402609506 L466.281528,-0.000402609506 Z M1424.28682,-0.000402609506 C1418.90662,9.12809692 1413.63377,18.9853197 1408.39717,29.0733719 L1419.4743,29.0733719 C1425.99254,18.0069786 1432.66915,8.01421062 1439.63832,-0.000402609506 L1424.28682,-0.000402609506 Z M719.94699,-0.000402609506 C721.714445,9.37100466 723.26315,19.1638099 724.754147,29.0733719 L733.847754,29.0733719 C732.356757,19.4630829 730.952992,9.67967195 729.496887,-0.000402609506 L719.94699,-0.000402609506 Z M863.183374,29.0733719 L873.734427,29.0733719 C879.599105,18.4820578 885.565778,8.56578565 891.728388,-0.000402609506 L878.521454,-0.000402609506 C873.354632,9.32537558 868.265648,19.17052 863.183374,29.0733719 L863.183374,29.0733719 Z M934.392917,12.9300727 C921.239664,10.7586654 909.37342,17.3158322 898.274818,29.0733719 L957.418155,29.0733719 C951.467586,20.3286934 944.0126,14.5176962 934.392917,12.9300727 L934.392917,12.9300727 Z M1257.92723,-0.000402609506 C1259.91881,9.24216962 1261.62587,19.0376589 1263.21215,29.0733719 L1272.33797,29.0733719 C1270.89126,19.3637726 1269.48078,9.57901957 1267.96563,-0.000402609506 L1257.92723,-0.000402609506 Z M968.624119,-0.000402609506 C972.239553,8.47452749 975.139683,18.3411445 977.596943,29.0733719 L987.868854,29.0733719 C986.230233,18.9826356 984.442647,9.18312022 982.338341,-0.000402609506 L968.624119,-0.000402609506 Z M1168.55329,-0.000402609506 C1161.11575,7.6827288 1154.02714,17.7224678 1147.13044,29.0733719 L1163.73808,29.0733719 C1174.62062,17.8110419 1186.24664,11.5934091 1199.10598,13.7165033 C1208.43713,15.2571556 1215.73376,20.7635116 1221.59441,29.0733719 L1239.2542,29.0733719 C1235.85886,17.5922908 1231.69722,7.60891705 1226.31568,-0.000402609506 L1168.55329,-0.000402609506 Z M1140.66453,-0.000402609506 C1135.61312,9.851452 1130.55903,19.6939124 1125.43918,29.0733719 L1135.87482,29.0733719 C1140.91952,19.2362796 1145.96287,9.3938192 1151.07199,-0.000402609506 L1140.66453,-0.000402609506 Z M579.786542,29.0733719 L590.69055,29.0733719 C595.692302,19.3932973 600.67124,9.55620503 605.690438,-0.000402609506 L595.474893,-0.000402609506 C590.294651,10.0272582 585.08891,19.8804548 579.786542,29.0733719 L579.786542,29.0733719 Z"/>
</svg>
